<svg xmlns="http://www.w3.org/2000/svg" width="1400" height="720" viewBox="0 0 1400 720" role="img" aria-label="Public / Private Boundary">
<rect width="1400" height="720" fill="#101820"/>
<circle cx="1180" cy="120" r="120" fill="#4B2E83" opacity="0.55"/>
<circle cx="230" cy="600" r="150" fill="#2A9D8F" opacity="0.22"/>
<text x="80" y="120" font-family="Segoe UI, Arial" font-size="54" fill="#F7F3EA" font-weight="800">Public / Private Boundary</text>
<text x="84" y="168" font-family="Segoe UI, Arial" font-size="24" fill="#D9A441">Clear enough to understand, strict enough to protect</text>
<rect x="80" y="255" width="190" height="92" rx="16" fill="#F7F3EA" stroke="#D9A441" stroke-width="3"/><text x="175" y="292" text-anchor="middle" font-family="Segoe UI, Arial" font-size="18" fill="#101820" font-weight="700">Public</text><text x="175" y="318" text-anchor="middle" font-family="Segoe UI, Arial" font-size="14" fill="#101820">brief</text><path d="M280 301 L312 301" stroke="#2A9D8F" stroke-width="5" stroke-linecap="round"/><path d="M304 291 L316 301 L304 311" fill="none" stroke="#2A9D8F" stroke-width="5" stroke-linecap="round" stroke-linejoin="round"/>
<rect x="320" y="255" width="190" height="92" rx="16" fill="#F7F3EA" stroke="#D9A441" stroke-width="3"/><text x="415" y="292" text-anchor="middle" font-family="Segoe UI, Arial" font-size="18" fill="#101820" font-weight="700">Visual</text><text x="415" y="318" text-anchor="middle" font-family="Segoe UI, Arial" font-size="14" fill="#101820">workflow</text><path d="M520 301 L552 301" stroke="#2A9D8F" stroke-width="5" stroke-linecap="round"/><path d="M544 291 L556 301 L544 311" fill="none" stroke="#2A9D8F" stroke-width="5" stroke-linecap="round" stroke-linejoin="round"/>
<rect x="560" y="255" width="190" height="92" rx="16" fill="#F7F3EA" stroke="#D9A441" stroke-width="3"/><text x="655" y="292" text-anchor="middle" font-family="Segoe UI, Arial" font-size="18" fill="#101820" font-weight="700">Owner</text><text x="655" y="318" text-anchor="middle" font-family="Segoe UI, Arial" font-size="14" fill="#101820">rights</text><path d="M760 301 L792 301" stroke="#2A9D8F" stroke-width="5" stroke-linecap="round"/><path d="M784 291 L796 301 L784 311" fill="none" stroke="#2A9D8F" stroke-width="5" stroke-linecap="round" stroke-linejoin="round"/>
<rect x="800" y="255" width="190" height="92" rx="16" fill="#F7F3EA" stroke="#D9A441" stroke-width="3"/><text x="895" y="292" text-anchor="middle" font-family="Segoe UI, Arial" font-size="18" fill="#101820" font-weight="700">Private</text><text x="895" y="318" text-anchor="middle" font-family="Segoe UI, Arial" font-size="14" fill="#101820">engine</text><path d="M1000 301 L1032 301" stroke="#2A9D8F" stroke-width="5" stroke-linecap="round"/><path d="M1024 291 L1036 301 L1024 311" fill="none" stroke="#2A9D8F" stroke-width="5" stroke-linecap="round" stroke-linejoin="round"/>
<rect x="1040" y="255" width="190" height="92" rx="16" fill="#F7F3EA" stroke="#D9A441" stroke-width="3"/><text x="1135" y="292" text-anchor="middle" font-family="Segoe UI, Arial" font-size="18" fill="#101820" font-weight="700">No source</text><text x="1135" y="318" text-anchor="middle" font-family="Segoe UI, Arial" font-size="14" fill="#101820">release</text>
<rect x="80" y="470" width="1240" height="100" rx="20" fill="#17242D" stroke="#2A9D8F" stroke-width="2"/>
<text x="112" y="525" font-family="Segoe UI, Arial" font-size="25" fill="#F7F3EA" font-weight="700">Public surface. Private engine. Receipts always.</text>
<text x="112" y="558" font-family="Segoe UI, Arial" font-size="17" fill="#F7F3EA">No medical, benefits, identity, account, legal filing, or private workflow records are published.</text>
</svg>
